<?xml version="1.0" encoding="UTF-8" standalone="no"?>
<!-- Created with Inkscape (http://www.inkscape.org/) -->

<svg
   xmlns:dc="http://purl.org/dc/elements/1.1/"
   xmlns:cc="http://creativecommons.org/ns#"
   xmlns:rdf="http://www.w3.org/1999/02/22-rdf-syntax-ns#"
   xmlns:svg="http://www.w3.org/2000/svg"
   xmlns="http://www.w3.org/2000/svg"
   xmlns:sodipodi="http://sodipodi.sourceforge.net/DTD/sodipodi-0.dtd"
   xmlns:inkscape="http://www.inkscape.org/namespaces/inkscape"
   width="210mm"
   height="297mm"
   id="svg2"
   version="1.1"
   inkscape:version="0.48.4 r9939"
   sodipodi:docname="logo1.png">
  <defs
     id="defs4" />
  <sodipodi:namedview
     id="base"
     pagecolor="#ffffff"
     bordercolor="#666666"
     borderopacity="1.0"
     inkscape:pageopacity="0.0"
     inkscape:pageshadow="2"
     inkscape:zoom="0.92375"
     inkscape:cx="361.63714"
     inkscape:cy="27.210734"
     inkscape:document-units="px"
     inkscape:current-layer="layer1"
     showgrid="false"
     inkscape:window-width="1680"
     inkscape:window-height="988"
     inkscape:window-x="-8"
     inkscape:window-y="-8"
     inkscape:window-maximized="1" />
  <metadata
     id="metadata7">
    <rdf:RDF>
      <cc:Work
         rdf:about="">
        <dc:format>image/svg+xml</dc:format>
        <dc:type
           rdf:resource="http://purl.org/dc/dcmitype/StillImage" />
        <dc:title></dc:title>
      </cc:Work>
    </rdf:RDF>
  </metadata>
  <g
     inkscape:label="Calque 1"
     inkscape:groupmode="layer"
     id="layer1">
    <path
       style="fill:#000000;fill-opacity:1;stroke:#000000;stroke-width:4;stroke-linecap:square;stroke-linejoin:miter;stroke-miterlimit:4;stroke-opacity:1;stroke-dasharray:none;marker-start:none"
       d="m 0,736.36204 0,316.00016 396,0 0,-316.00016 z m 366,30 0,106.00016 c -49.66667,-10e-4 -160.33333,-0.004 -210,0 l 94,-106.00016 z m -152,0 -84,106.00016 -100,0 0,-106.00016 z m 12,256.00016 0,-102 c 48.47619,0 91.52381,4e-4 140,0 l 0,102 z m -196,0 0,-102 c 59.190476,4e-4 100.80952,0 160,0 l 0,102 z"
       id="rect2998"
       inkscape:connector-curvature="0"
       sodipodi:nodetypes="ccccccccccccccccccccccccc" />
    <path
       style="fill:#7b858a;fill-opacity:1;stroke:#000000;stroke-width:4px;stroke-linecap:butt;stroke-linejoin:miter;stroke-opacity:1"
       d="m 226,874.3622 36.13775,46 -36.13775,0 -2,118 -34,-32 0,-86 -100,0 138,-174.00008 c -2.62607,42.15736 -2.42495,84.07892 -2,128.00008 z m -60,0 24,0 2,-32.00008 z"
       id="path3836"
       inkscape:connector-curvature="0"
       sodipodi:nodetypes="ccccccccccccc" />
  </g>
</svg>
